#!OML:ASF X:\2005_08_12_Meinard\c3d\meinard.ASF
:FULLY-SPECIFIED
:DEGREES
415
root 3.30271 16.4867 -0.211822 97.9018 -78.6197 -127.172
lowerback 49.8843 0.329672 -0.942533
upperback 10.1901 -2.21813 2.0372
thorax -9.06596 -2.14652 3.77524
lowerneck -11.2015 -0.898167 -5.17792
upperneck -5.49295 -0.835885 9.00113
head 0.265882 -0.37793 3.84821
rclavicle -1.74931e-014 5.1684e-014
rhumerus -38.9907 -4.71475 -79.1575
rradius 65.3286
rwrist 17.3256
rhand -8.78063 -7.68699
rfingers 7.12502
rthumb 17.1576 -36.9494
lclavicle -1.74931e-014 5.1684e-014
lhumerus -25.4402 17.9235 77.0339
lradius 38.1327
lwrist -215.441
lhand -5.79628 4.92754
lfingers 7.12502
lthumb 20.0282 33.9153
rfemur -11.773 -6.46955 26.8148
rtibia 84.192
rfoot -8.47929 -13.8354
rtoes 15.6297
lfemur 7.14478 4.98553 -11.4967
ltibia 43.7669
lfoot -14.0923 26.6484
ltoes 10.6388
416
root 3.31009 16.4872 -0.225331 99.1585 -78.6932 -128.113
lowerback 49.5293 0.315096 -0.907743
upperback 10.168 -2.19176 1.98348
thorax -9.04373 -2.11747 3.68277
lowerneck -11.0924 -0.906483 -5.36962
upperneck -5.5085 -0.823542 9.03072
head 0.24281 -0.368905 3.89677
rclavicle -9.54166e-015 -2.14687e-014
rhumerus -39.1179 -4.99846 -79.1225
rradius 65.3667
rwrist 17.1532
rhand -8.77704 -7.77973
rfingers 7.12502
rthumb 17.1611 -37.0419
lclavicle -9.54166e-015 -2.14687e-014
lhumerus -25.5069 17.7263 76.9382
lradius 38.2958
lwrist -215.101
lhand -5.93401 4.86739
lfingers 7.12502
lthumb 19.8958 33.869
rfemur -10.5343 -6.01095 26.6743
rtibia 81.889
rfoot -7.96913 -13.7668
rtoes 15.5688
lfemur 6.78398 4.83386 -11.7723
ltibia 43.8462
lfoot -14.0767 26.9685
ltoes 10.6837
417
root 3.31769 16.4872 -0.240525 100.351 -78.7872 -129.01
lowerback 49.1896 0.302359 -0.891329
upperback 10.1392 -2.17304 1.92365
thorax -9.0293 -2.09145 3.59614
lowerneck -10.9712 -0.91203 -5.49996
upperneck -5.50404 -0.81566 9.01871
head 0.223552 -0.363108 3.91817
rclavicle -1.70955e-014 1.66979e-014
rhumerus -39.2335 -5.2806 -79.1063
rradius 65.3585
rwrist 16.9893
rhand -8.73488 -7.8613
rfingers 7.12502
rthumb 17.2016 -37.1199
lclavicle -1.70955e-014 1.66979e-014
lhumerus -25.513 17.4908 76.8548
lradius 38.4202
lwrist -214.821
lhand -6.08667 4.85434
lfingers 7.12502
lthumb 19.749 33.8711
rfemur -9.31958 -5.53801 26.5407
rtibia 79.5591
rfoot -7.41875 -13.7188
rtoes 15.5436
lfemur 6.43809 4.64862 -12.0696
ltibia 43.9293
lfoot -14.0713 27.2854
ltoes 10.5991
418
root 3.32469 16.4855 -0.256704 101.485 -78.8995 -129.859
lowerback 48.8307 0.292941 -0.886228
upperback 10.1251 -2.15573 1.87646
thorax -8.99341 -2.06794 3.52828
lowerneck -10.8768 -0.923805 -5.68483
upperneck -5.48474 -0.810248 9.05626
head 0.214925 -0.356521 3.96823
rclavicle 1.74931e-014 2.38542e-014
rhumerus -39.306 -5.56913 -79.0739
rradius 65.2414
rwrist 16.798
rhand -8.76237 -7.88874
rfingers 7.12502
rthumb 17.1752 -37.1497
lclavicle 1.74931e-014 2.38542e-014
lhumerus -25.4506 17.2618 76.8189
lradius 38.5206
lwrist -214.557
lhand -6.19028 4.84805
lfingers 7.12502
lthumb 19.6494 33.875
rfemur -8.11638 -5.04638 26.412
rtibia 77.2168
rfoot -6.8205 -13.6225
rtoes 16.2288
lfemur 6.09661 4.46945 -12.3685
ltibia 44.024
lfoot -14.0686 27.5824
ltoes 10.6031
419
root 3.33171 16.4842 -0.274331 102.48 -79.0137 -130.565
lowerback 47.5593 0.268372 -0.896766
upperback 11.0629 -2.15022 1.76893
thorax -9.02439 -2.03739 3.48589
lowerneck -10.8145 -0.937373 -5.80877
upperneck -5.42766 -0.814853 9.05358
head 0.22417 -0.354962 3.99157
rclavicle -5.56597e-014 3.26007e-014
rhumerus -39.378 -5.85199 -79.0718
rradius 65.0376
rwrist 16.642
rhand -8.76792 -7.88932
rfingers 7.12502
rthumb 17.1698 -37.1507
lclavicle -5.56597e-014 3.26007e-014
lhumerus -25.3704 16.9587 76.7736
lradius 38.5979
lwrist -214.325
lhand -6.21976 4.9274
lfingers 7.12502
lthumb 19.6211 33.9572
rfemur -6.94583 -4.53955 26.3219
rtibia 74.8817
rfoot -6.27143 -13.511
rtoes 16.9035
lfemur 5.7427 4.26399 -12.6588
ltibia 44.1188
lfoot -14.0557 27.8711
ltoes 10.5782
420
root 3.33785 16.4802 -0.293406 103.354 -79.1565 -131.186
lowerback 47.2183 0.234159 -0.88877
upperback 11.0389 -2.16493 1.71021
thorax -8.97058 -2.02989 3.41638
lowerneck -10.8334 -0.947026 -5.92384
upperneck -5.32641 -0.815196 9.06199
head 0.261737 -0.349408 4.01771
rclavicle 1.59028e-014 2.3059e-014
rhumerus -39.4132 -6.06883 -79.0929
rradius 64.7883
rwrist 16.4911
rhand -8.79091 -7.90159
rfingers 7.12502
rthumb 17.1477 -37.1649
lclavicle 1.59028e-014 2.3059e-014
lhumerus -25.2203 16.6846 76.7411
lradius 38.6204
lwrist -214.166
lhand -6.15898 5.0994
lfingers 7.12502
lthumb 19.6795 34.1233
rfemur -5.76034 -4.04314 26.2284
rtibia 72.5901
rfoot -5.93578 -13.4545
rtoes 16.8069
lfemur 5.42957 4.05059 -12.9511
ltibia 44.2011
lfoot -14.0723 28.1383
ltoes 10.5084
421
root 3.3434 16.4804 -0.314589 104.097 -79.3074 -131.67
lowerback 46.8502 0.193963 -0.875339
upperback 11.02 -2.18277 1.6546
thorax -8.90301 -2.02384 3.34793
lowerneck -10.8864 -0.963509 -6.02088
upperneck -5.19938 -0.826546 9.05947
head 0.314448 -0.348772 4.03614
rclavicle 3.26007e-014 -3.18055e-014
rhumerus -39.4682 -6.27959 -79.1279
rradius 64.5258
rwrist 16.3967
rhand -8.83591 -7.88716
rfingers 7.12502
rthumb 17.1044 -37.1542
lclavicle 3.26007e-014 -3.18055e-014
lhumerus -25.0229 16.4912 76.7071
lradius 38.5774
lwrist -214.142
lhand -5.99343 5.44619
lfingers 7.12502
lthumb 19.8387 34.4537
rfemur -4.63618 -3.55369 26.1595
rtibia 70.3818
rfoot -5.8259 -13.4518
rtoes 16.0106
lfemur 5.11497 3.85743 -13.2136
ltibia 44.2708
lfoot -14.0693 28.3536
ltoes 10.4788
422
root 3.34965 16.4829 -0.336042 104.662 -79.4798 -131.996
lowerback 46.5026 0.142383 -0.843271
upperback 10.9988 -2.20711 1.59149
thorax -8.84213 -2.02049 3.26529
lowerneck -10.9768 -0.987273 -6.03456
upperneck -5.03921 -0.857226 9.02319
head 0.385142 -0.358435 4.02529
rclavicle 3.57812e-015 -3.57812e-014
rhumerus -39.5459 -6.53038 -79.1729
rradius 64.2328
rwrist 16.3452
rhand -8.87606 -7.86
rfingers 7.12502
rthumb 17.0657 -37.1304
lclavicle 3.57812e-015 -3.57812e-014
lhumerus -24.7801 16.2743 76.6774
lradius 38.4857
lwrist -214.165
lhand -5.72301 5.85648
lfingers 7.12502
lthumb 20.0986 34.8369
rfemur -3.55646 -3.09804 26.0902
rtibia 68.2766
rfoot -5.8724 -13.4418
rtoes 14.9984
lfemur 4.82261 3.64295 -13.4738
ltibia 44.337
lfoot -14.0938 28.5506
ltoes 10.3926
423
root 3.35551 16.4828 -0.359215 105.211 -79.6625 -132.305
lowerback 46.1308 0.0948452 -0.84026
upperback 10.9857 -2.23934 1.53724
thorax -8.76359 -2.02188 3.20948
lowerneck -11.1197 -1.00492 -6.08748
upperneck -4.83549 -0.874787 9.00117
head 0.478834 -0.359043 4.02845
rclavicle 3.57812e-014 -3.18055e-014
rhumerus -39.6354 -6.73026 -79.2374
rradius 63.9332
rwrist 16.2978
rhand -8.9815 -7.84044
rfingers 7.12502
rthumb 16.9642 -37.1196
lclavicle 3.57812e-014 -3.18055e-014
lhumerus -24.5047 16.0744 76.6684
lradius 38.3846
lwrist -214.216
lhand -5.43235 6.2077
lfingers 7.12502
lthumb 20.378 35.1585
rfemur -2.48317 -2.62437 26.0411
rtibia 66.2292
rfoot -6.06965 -13.4432
rtoes 14.1129
lfemur 4.50684 3.44064 -13.7305
ltibia 44.4301
lfoot -14.1129 28.7324
ltoes 10.4026
424
root 3.36137 16.4784 -0.384174 105.603 -79.8524 -132.477
lowerback 45.774 0.0437162 -0.843301
upperback 10.9698 -2.27728 1.49986
thorax -8.68979 -2.02675 3.17785
lowerneck -11.2398 -1.02143 -6.14747
upperneck -4.64842 -0.889843 8.98105
head 0.563067 -0.359117 4.03385
rclavicle -3.57812e-014 7.15625e-015
rhumerus -39.7291 -6.87964 -79.283
rradius 63.5859
rwrist 16.2629
rhand -9.13697 -7.78238
rfingers 7.12502
rthumb 16.8146 -37.0743
lclavicle -3.57812e-014 7.15625e-015
lhumerus -24.2037 16.0155 76.6751
lradius 38.2236
lwrist -214.427
lhand -5.11996 6.68249
lfingers 7.12502
lthumb 20.6781 35.6009
rfemur -1.40961 -2.18199 26.0175
rtibia 64.2398
rfoot -6.42433 -13.4221
rtoes 13.5748
lfemur 4.17521 3.28874 -13.9387
ltibia 44.5706
lfoot -14.1597 28.8267
ltoes 10.4082
425
root 3.36748 16.4713 -0.410395 105.846 -80.0578 -132.5
lowerback 45.4022 -0.0148879 -0.848101
upperback 10.9637 -2.32638 1.45657
thorax -8.5995 -2.03735 3.14461
lowerneck -11.4151 -1.04126 -6.15418
upperneck -4.41458 -0.915395 8.94092
head 0.672629 -0.363875 4.02164
rclavicle 1.51076e-014 -2.70347e-014
rhumerus -39.7997 -7.07044 -79.3516
rradius 63.2246
rwrist 16.2743
rhand -9.25493 -7.73141
rfingers 7.12502
rthumb 16.701 -37.033
lclavicle 1.51076e-014 -2.70347e-014
lhumerus -23.8494 15.9788 76.671
lradius 38.0373
lwrist -214.706
lhand -4.81559 7.17818
lfingers 7.12502
lthumb 20.9706 36.0645
rfemur -0.356126 -1.73408 26.0258
rtibia 62.2882
rfoot -6.9982 -13.3955
rtoes 13.2056
lfemur 3.80987 3.18214 -14.1135
ltibia 44.7696
lfoot -14.2521 28.8661
ltoes 10.3927
426
root 3.37449 16.4622 -0.439144 106.04 -80.273 -132.474
lowerback 45.029 -0.0676611 -0.868973
upperback 10.9512 -2.3745 1.41152
thorax -8.51441 -2.0469 3.11726
lowerneck -11.5419 -1.05659 -6.15489
upperneck -4.20698 -0.936082 8.90332
head 0.764703 -0.36763 4.00917
rclavicle -3.97569e-016 3.18055e-014
rhumerus -39.8867 -7.27089 -79.4288
rradius 62.8318
rwrist 16.2949
rhand -9.42443 -7.65354
rfingers 7.12502
rthumb 16.5378 -36.9688
lclavicle -3.97569e-016 3.18055e-014
lhumerus -23.4716 15.9698 76.6797
lradius 37.8472
lwrist -215.077
lhand -4.55645 7.57496
lfingers 7.12502
lthumb 21.2195 36.4335
rfemur 0.665429 -1.24917 26.0869
rtibia 60.3863
rfoot -7.79914 -13.3774
rtoes 12.6044
lfemur 3.412 3.12298 -14.2605
ltibia 45.0134
lfoot -14.3475 28.8624
ltoes 10.4322
427
root 3.38149 16.4522 -0.46925 106.151 -80.4838 -132.382
lowerback 44.6604 -0.105677 -0.901676
upperback 10.9449 -2.40917 1.38615
thorax -8.42203 -2.05202 3.11117
lowerneck -11.671 -1.07751 -6.15814
upperneck -3.99201 -0.964031 8.87388
head 0.860481 -0.374794 4.00004
rclavicle -3.10104e-014 2.54444e-014
rhumerus -39.9421 -7.50218 -79.4858
rradius 62.3798
rwrist 16.3401
rhand -9.61444 -7.53338
rfingers 7.12502
rthumb 16.3549 -36.8638
lclavicle -3.10104e-014 2.54444e-014
lhumerus -23.0465 16.0013 76.723
lradius 37.6406
lwrist -215.51
lhand -4.38897 7.91328
lfingers 7.12502
lthumb 21.3804 36.7537
rfemur 1.67621 -0.756333 26.1986
rtibia 58.5384
rfoot -8.81683 -13.3152
rtoes 11.5784
lfemur 3.00689 3.08272 -14.3815
ltibia 45.2941
lfoot -14.4382 28.8479
ltoes 10.5137
428
root 3.38951 16.4414 -0.500725 106.162 -80.7148 -132.191
lowerback 44.303 -0.139823 -0.955022
upperback 10.9298 -2.44586 1.37024
thorax -8.34038 -2.05781 3.12713
lowerneck -11.7924 -1.10193 -6.1424
upperneck -3.76789 -0.998481 8.80144
head 0.957724 -0.385915 3.97155
rclavicle 1.59028e-014 -2.62396e-014
rhumerus -39.9807 -7.74658 -79.5318
rradius 61.8843
rwrist 16.4125
rhand -9.80319 -7.43465
rfingers 7.12502
rthumb 16.1732 -36.7799
lclavicle 1.59028e-014 -2.62396e-014
lhumerus -22.6057 16.1067 76.7807
lradius 37.4227
lwrist -215.991
lhand -4.27317 8.25999
lfingers 7.12502
lthumb 21.4916 37.0877
rfemur 2.63827 -0.262212 26.3319
rtibia 56.7638
rfoot -9.94064 -13.2294
rtoes 10.6515
lfemur 2.57879 3.01725 -14.5163
ltibia 45.6018
lfoot -14.5235 28.8323
ltoes 10.7179
